<svg xmlns="http://www.w3.org/2000/svg" viewBox="0 0 268.32 205.74"><title>Asset 2</title><g id="Layer_2" data-name="Layer 2"><g id="Adam_Goarley_Logo" data-name="Adam Goarley Logo"><g id="Adam_Goarley" data-name="Adam Goarley"><path d="M65.45,119.75c-.35,2.46-.7,4.93-1.06,7.39a6.19,6.19,0,0,1-.13.62.63.63,0,0,1-.54.5l-.16,0H60.39a.6.6,0,0,1-.55-.65c.2-1.25.39-2.51.6-3.76.39-2.35.79-4.7,1.18-7L62.94,109a1.73,1.73,0,0,1,.07-.31.73.73,0,0,1,.49-.57.91.91,0,0,1,1,.28c.2.31.38.64.56,1q2.77,5.18,5.56,10.35a4.44,4.44,0,0,0,.45.62.2.2,0,0,0,.15,0,2.48,2.48,0,0,0,.37-.5c.89-1.62,1.76-3.26,2.64-4.89l3-5.59c.15-.28.3-.56.46-.84a.9.9,0,0,1,1-.42.69.69,0,0,1,.59.47c0,.2.1.41.14.61l1.53,9.09L82,124.82c.15.94.31,1.88.45,2.82a.59.59,0,0,1-.56.63H78.53a.53.53,0,0,1-.47-.38,3,3,0,0,1-.16-.61c-.37-2.51-.72-5-1.08-7.54,0-.14,0-.22-.19-.19s-.23.06-.26.13c-.26.46-.5.93-.75,1.4l-3.21,6.2c-.17.33-.35.66-.55,1a.8.8,0,0,1-.69.33.86.86,0,0,1-.81-.39c-.17-.27-.31-.56-.46-.84l-3.23-6.19c-.19-.38-.41-.74-.61-1.11C65.85,120,65.88,119.38,65.45,119.75Z"/><path d="M108.46,122.56c0,1.12,0,2.23,0,3.34a1.09,1.09,0,0,1-.73,1.1,14.52,14.52,0,0,1-4.37,1.36l-.79.11a10,10,0,0,1-5.87-.94,9.71,9.71,0,0,1-5.6-7.6,10,10,0,0,1,3-9,9.74,9.74,0,0,1,5.6-2.75,10.51,10.51,0,0,1,8.41,2.49.55.55,0,0,1,.19.24.77.77,0,0,1,0,.45,4.09,4.09,0,0,1-.49.61c-.58.63-1.16,1.24-1.74,1.86a.8.8,0,0,1-.89.07c-.18-.12-.34-.26-.51-.38a5.69,5.69,0,1,0-5,10.13A4.84,4.84,0,0,0,101,124a6.93,6.93,0,0,0,2.52-.23.63.63,0,0,0,.46-.57c0-.27,0-.53,0-.8a.41.41,0,0,0-.38-.41l-1.11,0-.32,0a.59.59,0,0,1-.43-.41,4.44,4.44,0,0,1,0-.63c.06-3.25-.56-2.72,2.73-2.77,1.16,0,2.32,0,3.49,0a.5.5,0,0,1,.51.5c0,.79,0,1.58,0,2.38,0,.53,0,1.06,0,1.58Z"/><path d="M187.26,118.28c0-2.71,0-5.41,0-8.11,0-.42,0-.85,0-1.27a.68.68,0,0,1,.64-.59l.31,0h10.34c.31,0,.63,0,1,0a.6.6,0,0,1,.55.49c0,1.05,0,2.11,0,3.17a.56.56,0,0,1-.53.5q-.56,0-1.11,0H193c-.32,0-.64,0-.95,0a.49.49,0,0,0-.32.31l0,2.86c0,.09.23.29.34.29.31,0,.63,0,1,0h4c.32,0,.64,0,.95,0,.54,0,.79.26.8.78,0,.9,0,1.8,0,2.7a.86.86,0,0,1,0,.16.64.64,0,0,1-.53.51,6.84,6.84,0,0,1-.79.05h-4.13l-1.11,0a.42.42,0,0,0-.43.37c0,1,0,2,0,3a.42.42,0,0,0,.39.41c.32,0,.64,0,1,0h5.08c.43,0,.85,0,1.28,0a.63.63,0,0,1,.65.72c0,.9,0,1.8,0,2.7a.81.81,0,0,1,0,.16.69.69,0,0,1-.63.6l-.64,0H188.49a7.18,7.18,0,0,1-.79-.06.56.56,0,0,1-.4-.44c0-.21,0-.42,0-.63,0-1,0-2,0-3v-5.88Z"/><path d="M207.65,123.34c0-1.32,0-2.65,0-4a2,2,0,0,0-.37-1.18c-1.62-2.42-3.22-4.85-4.83-7.28q-.5-.74-1-1.47a2.8,2.8,0,0,1-.19-.43.5.5,0,0,1,.34-.62c.21,0,.42,0,.63,0,.85,0,1.7,0,2.55,0a1.54,1.54,0,0,1,1.55.85c.89,1.38,1.83,2.73,2.76,4.08.18.27.37.52.55.77a.28.28,0,0,0,.42,0c.24-.34.49-.68.73-1q1.44-2.1,2.86-4.21a1,1,0,0,1,.93-.48c1,0,2,0,3,0a3.88,3.88,0,0,1,.48,0,.51.51,0,0,1,.37.6,3.57,3.57,0,0,1-.34.71c-.94,1.41-1.89,2.81-2.84,4.22s-1.82,2.73-2.75,4.09a2.48,2.48,0,0,0-.47,1.47c0,2.39,0,4.77,0,7.16,0,1.65,0,1.69-1.65,1.67h-1.91c-.75,0-.89-.16-.89-1,0-1.33,0-2.65,0-4Z"/><path d="M172.69,118.13c0-2.81,0-5.62,0-8.43a5,5,0,0,1,.07-.94c0-.13.18-.25.3-.34a.5.5,0,0,1,.3-.08h3.18a.6.6,0,0,1,.59.61c0,.43,0,.85,0,1.28v12.24c0,.32,0,.64,0,1,0,.49.17.66.68.66h5.56a4.25,4.25,0,0,1,.79.09c.08,0,.16.13.22.21a.27.27,0,0,1,0,.16c0,1.05,0,2.11,0,3.17a.61.61,0,0,1-.5.54l-.63,0H174a6.83,6.83,0,0,1-.79-.06.56.56,0,0,1-.42-.42c0-.37-.05-.74-.05-1.11C172.68,123.86,172.69,121,172.69,118.13Z"/><path d="M65.45,119.75c0-.1,0-.2,0-.3s0-.09.08-.13.15-.07.24,0,.36.39.31.69Z"/><path d="M121.25,108.05a10.26,10.26,0,1,0,10.2,10.36A10.13,10.13,0,0,0,121.25,108.05ZM121,124a5.6,5.6,0,0,1-5.46-5.69A5.63,5.63,0,1,1,121,124Z"/><path d="M38.78,116.37a10.19,10.19,0,0,0-7.85-7.84,13.28,13.28,0,0,0-2.52-.24h-6.2c-.46,0-.71.25-.73.67s0,.63,0,1v17a5,5,0,0,0,.07.95.6.6,0,0,0,.29.34,1,1,0,0,0,.46.09h6.83a8.58,8.58,0,0,0,1.89-.24A10,10,0,0,0,38.78,116.37ZM33,122a5,5,0,0,1-3.17,1.94,14,14,0,0,1-3.48.12.33.33,0,0,1-.32-.29,7.13,7.13,0,0,1-.05-.79V113.4a2.57,2.57,0,0,1,.08-.62.33.33,0,0,1,.22-.21,13.66,13.66,0,0,1,3.32.09A5.18,5.18,0,0,1,33.71,116,5.87,5.87,0,0,1,33,122Z"/><path d="M165.84,122.41l-1-1.82a.34.34,0,0,1,.1-.42c.54-.34,1.1-.64,1.6-1a5.86,5.86,0,0,0,2-6.55,6.09,6.09,0,0,0-5.72-4.26c-2.7,0-5.4,0-8.1,0-1,0-1.18.25-1.18,1.21,0,2.91,0,5.83,0,8.74v8.1c0,.42,0,.85,0,1.27a.65.65,0,0,0,.6.63h3.33a.24.24,0,0,0,.15,0c.12-.1.27-.2.31-.33a2.91,2.91,0,0,0,.08-.78c0-1.75,0-3.5,0-5.24,0-.32,0-.64,0-1a.34.34,0,0,1,.29-.32c.31,0,.63,0,1-.07a.92.92,0,0,1,1,.59q1,2.15,2.15,4.24a19.12,19.12,0,0,0,1.49,2.79,15.25,15.25,0,0,0,3.31.14,5.93,5.93,0,0,0,.94-.05.44.44,0,0,0,.34-.47,3.18,3.18,0,0,0-.23-.74C167.51,125.48,166.67,124,165.84,122.41Zm-3.5-5.56c-.64,0-1.27,0-1.91,0h-1.9a.44.44,0,0,1-.43-.38c0-1.22,0-2.43,0-3.65a.43.43,0,0,1,.43-.38c1.27,0,2.54,0,3.81,0a2.14,2.14,0,0,1,2.07,2.18A2.26,2.26,0,0,1,162.34,116.85Z"/><path d="M18.74,126.69l-8.1-17.43c-.11-.24-.21-.48-.34-.71a.78.78,0,0,0-.76-.48.83.83,0,0,0-.72.54c-.07.14-.13.29-.2.43L.31,126.89c-.11.24-.2.49-.3.74s.17.62.37.62c1.16,0,2.33,0,3.49,0a.89.89,0,0,0,.74-.54c.31-.62.61-1.24.87-1.87a.84.84,0,0,1,.88-.53h6.52a.77.77,0,0,1,.76.47c.3.67.61,1.35.95,2a.85.85,0,0,0,.77.48h3a2.42,2.42,0,0,0,.46-.06c.14,0,.37-.38.32-.5C19,127.37,18.9,127,18.74,126.69Zm-8.57-5.23a5.56,5.56,0,0,1-.85,0,6.27,6.27,0,0,1-1.51,0c-.15,0-.27-.22-.2-.35.41-.79.69-1.65,1.15-2.42.26-.45.43-1,.65-1.43,0,0,.09-.12.11-.11s.2.07.23.14c.45,1,.88,1.91,1.34,2.86C11.79,121.56,11.49,121.33,10.17,121.46Z"/><path d="M58.72,127.55c-.11-.3-.23-.59-.36-.88l-8.18-17.55-.27-.57a.79.79,0,0,0-.76-.48.74.74,0,0,0-.63.41,5.07,5.07,0,0,0-.29.57l-1.47,3.16-6.7,14.38c-.15.34-.29.68-.41,1a.53.53,0,0,0,.35.62,1.65,1.65,0,0,0,.31,0h2.86a1.2,1.2,0,0,0,1.14-.72c.26-.52.51-1,.72-1.58a1,1,0,0,1,1.11-.69c2.07,0,4.13,0,6.2,0a.9.9,0,0,1,1,.61c.23.58.52,1.15.8,1.72a1,1,0,0,0,1,.64h1.43v0c.58,0,1.17,0,1.75,0A.51.51,0,0,0,58.72,127.55Zm-8.14-6.13H49v0c-.47,0-1,0-1.42,0a.33.33,0,0,1-.26-.46l1.65-3.6a.19.19,0,0,1,.26-.11.39.39,0,0,1,.13.06,1.2,1.2,0,0,1,.16.27c.49,1,1,2.1,1.47,3.15C51.21,121.19,51.08,121.41,50.58,121.42Z"/><path d="M151.28,127.65c-.16-.39-.33-.78-.51-1.16L144.49,113c-.62-1.34-1.24-2.69-1.88-4a3.46,3.46,0,0,0-.41-.66.72.72,0,0,0-1,0,7.59,7.59,0,0,0-.54,1q-2,4.32-4,8.64t-4.09,8.78a8.12,8.12,0,0,0-.38,1,.49.49,0,0,0,.41.57c.53,0,1,0,1.58,0v0h1.59a1.05,1.05,0,0,0,1-.63c.27-.57.58-1.14.8-1.73a.89.89,0,0,1,1-.61c2.12,0,4.24,0,6.36,0a.94.94,0,0,1,1,.68l.27.57c.87,2,.74,1.72,2.68,1.73.69,0,1.38,0,2.07,0A.55.55,0,0,0,151.28,127.65Zm-7.94-6.25h-1.58c-.58,0-1.15,0-1.73,0-.12,0-.27-.24-.23-.36a3.29,3.29,0,0,1,.16-.44c.41-.91.81-1.82,1.25-2.72.12-.25.14-.7.49-.67s.38.47.51.75c.47,1,.93,2,1.39,3A.32.32,0,0,1,143.34,121.4Z"/></g><path id="Plant_1" data-name="Plant 1" d="M113.56,132.81c-4.68.68-9.39,1.11-13.92,2.69-4.81,1.68-7.76,5.05-9.67,9.57-.54,1.27-1,2.59-1.58,3.85-.41.87-1,1.67-1.46,2.5l-.39-.15c.09-.54.18-1.07.28-1.61a98.42,98.42,0,0,0,.69-33.59,6.14,6.14,0,0,1,1.71-5,1.69,1.69,0,0,1-.9-.32,6,6,0,0,1-.81,1l-.52.5c-.14-.43-.28-.75-.35-1.08A105.18,105.18,0,0,0,79,88.47a8.93,8.93,0,0,1,1.44-10.29,9.81,9.81,0,0,0,2.65-8.46c-.31-1.84-.52-3.69-.89-5.52-.79-4-1.41-7.91.42-11.82-1.19,2.06-2.5,4.07-3.55,6.2C77.49,61.78,76,65,74.6,68.33c-1.5,3.63-.77,7.14,1.07,10.48,1,1.77,2,3.52,1.83,5.64a5,5,0,0,1-.15.58c-.3-.48-.54-.83-.74-1.19A103.88,103.88,0,0,0,62.29,63.76a9.65,9.65,0,0,1-2.17-10.48,8.28,8.28,0,0,0-.45-7.1C58.46,44.06,57.14,42,55.8,40c-2-3.11-3.93-6.26-3.69-10.24-.42,3.31-.93,6.61-1.21,9.93-.2,2.51-.14,5.06-.11,7.59,0,3.94,1.94,6.9,5,9.25,1.38,1.06,3,1.95,3.61,4.07l-1-.79c-4.7-3.92-9.36-7.89-14.11-11.74-2.64-2.15-5-4.41-6.13-7.76a9.55,9.55,0,0,0-5.38-5.87c-1.75-.76-3.45-1.65-5.21-2.4-4.47-1.89-5.67-2.81-8.51-6.55.27.63.53,1.26.82,1.88C22.14,32,24.1,36.79,27.25,41c2,2.68,4.57,4.59,7.84,4.79,4.81.31,8.46,2.75,12,5.52,1.56,1.22,3.08,2.5,4.62,3.75l-.35.49a25,25,0,0,1-3.55-2.39c-2.28-2.17-4.54-4.44-7.71-5a30.05,30.05,0,0,0-8.24-.52c-5.36.52-10.68,1.47-16,2.49,5.3-.7,9.64,1.72,14.05,4a47.69,47.69,0,0,0,5.92,2.57,11.25,11.25,0,0,0,8.15-.4,10.84,10.84,0,0,1,8.65.25,7.12,7.12,0,0,1,2,1.29A100.8,100.8,0,0,1,70.88,77.31a1.88,1.88,0,0,1,.16.39l-.29.3a23.34,23.34,0,0,1-2.84-2.78c-1.76-2.42-3.47-4.9-6.26-6.19a26.13,26.13,0,0,0-5.41-1.76c-6.4-1.39-12.91-.87-19.41-.87,5.07.11,8.82,2.94,12.55,5.84,1.43,1.12,3,2.11,4.43,3.18,3,2.18,6.26,2.59,9.82,2.14a15.52,15.52,0,0,1,4.81.15,6.8,6.8,0,0,1,4.89,3.59,103.46,103.46,0,0,1,10.33,26.29A5.5,5.5,0,0,1,81.2,104c-.33-1.44-.56-2.91-1-4.34a13.34,13.34,0,0,0-6.86-8.74c-4.86-2.58-10.15-3.67-15.35-5.1a37,37,0,0,0-3.68-.67c1,.48,2.11.92,3.12,1.52,2.71,1.6,4.17,4.29,5.75,6.85s3,4.93,4.5,7.35a8,8,0,0,0,7.39,4c5.13-.44,9.24,4.53,9.91,9.07a105,105,0,0,1,.14,31.9c-.07.42-.15.84-.29,1.65v0a1.63,1.63,0,0,1-.13.57c-.06.27-.13.54-.2.81a6,6,0,0,0-.11.7,2.44,2.44,0,0,1,0,.61,99,99,0,0,1-3.33,12.44,13.89,13.89,0,0,1,2.51-.3c.78-2.38,1.38-4.82,2.07-7.26.82-2.92,4.53-4.73,6.46-4.3A7.42,7.42,0,0,0,99.7,148c2-2.36,3.73-4.85,5.63-7.25a42.1,42.1,0,0,1,4.25-5,27.84,27.84,0,0,1,4.5-2.89A1.68,1.68,0,0,0,113.56,132.81Z"/><path id="Plant_2" data-name="Plant 2" d="M229.63,32.05c-5.19.23-9.32,3.33-13.44,6.29-1.85,1.32-4.13,2-6.21,3l-.45-.87c2.74-1.65,5.45-3.35,8.23-4.94,6.33-3.63,12.71-6.71,20.47-6.12,5.27.4,9.75-2.06,13.59-5.89,6-6,10.17-13.19,14.76-20.14.61-.92,1.16-1.88,1.74-2.83-5.37,5.34-7.49,6.54-15.06,8.56-3,.79-5.89,1.84-8.86,2.66A15.45,15.45,0,0,0,234.49,20c-2.6,5.1-6.83,8.19-11.53,11-8.46,5.1-16.8,10.39-25.18,15.6l-1.7,1c1.49-3.24,4.24-4.3,6.69-5.7,5.39-3.06,9.11-7.36,10-13.65.61-4,1.28-8.08,1.52-12.15.31-5.36.22-10.74.31-16.12-.52,6.4-4.23,11-8.2,15.53-2.59,3-5.17,6-7.57,9.06a13.38,13.38,0,0,0-2.33,11.23c1.41,6.74-.71,12-5.81,16.27a167.44,167.44,0,0,0-27.39,28.85c-.4.54-.85,1-1.43,1.73a5.33,5.33,0,0,1-.11-1c.26-3.42,2.22-6,4.18-8.61,3.69-4.91,5.64-10.36,4-16.5C168.6,51,166.9,45.5,165.08,40c-1.22-3.63-2.85-7.13-4.29-10.69,2,6.66.17,12.81-2,19-1,2.84-1.75,5.75-2.65,8.62-1.6,5.1-.56,9.77,2.32,14.11,3.72,5.6,3.46,11.34,0,16.74a179.28,179.28,0,0,0-12.75,23.56c.7,1.23,1.33,2.52,1.92,3.84a167.78,167.78,0,0,1,21.53-37.57A11,11,0,0,1,177.78,73a24.52,24.52,0,0,1,7.72.84c5.59,1.52,10.95,1.61,16.17-1.21,2.58-1.39,5.25-2.62,7.79-4.08,6.61-3.8,13.23-7.49,21.34-6.51-10.38-1.47-20.64-3.76-31.18-3a43.25,43.25,0,0,0-9.05,1.6c-4.74,1.44-8,5-11.38,8.48A36.49,36.49,0,0,1,174,72.93l-.38-.54a3.74,3.74,0,0,1,.33-.59,163,163,0,0,1,30.24-27.59,11.5,11.5,0,0,1,3.55-1.6c4.8-1.25,9.41-1,13.87,1.54a18.16,18.16,0,0,0,12.92,2.48,76.06,76.06,0,0,0,10-2.78c7.56-2.64,15-5.53,23.35-3.23-8.3-2.81-16.58-5.53-25-7.56A48,48,0,0,0,229.63,32.05Z"/><path id="Plant_2_bottom" data-name="Plant 2 bottom" d="M149.71,148.82c-6.49,4.28-9.36,10.43-10.18,17.83-.27,2.45-.34,4.93-.61,7.39a12.38,12.38,0,0,1-3,6.65c0-1.32-.08-2-.09-2.7a168.46,168.46,0,0,1,6.79-48.83c-1.22,0-2.45,0-3.67,0a7.55,7.55,0,0,1-.19.79,158.9,158.9,0,0,0-6.44,53.8c0,.88.06,1.75.1,2.63h-.06c0,.31.06.61.08.92s.06.63.08,1,0,.68,0,1a1.94,1.94,0,0,0,0,.24c0,.15,0,.3,0,.45q.14.7.21,1.44a7.58,7.58,0,0,1,.22,1.19q.6,6.09,1.66,12.06a21.43,21.43,0,0,1,3.95,1,159.75,159.75,0,0,1-2.52-20.62,4.26,4.26,0,0,1,.49-2.22c2.59-4.77,6.13-8.07,11.92-8.81,5.95-.76,10.83-3.62,13.43-9.39q3.08-6.85,6-13.8c2.87-6.91,6.31-13.29,13.69-16.43,0,0,0-.19,0-.3C172.1,136.9,156.61,144.26,149.71,148.82Z"/><g id="Little_plant" data-name="Little plant"><path d="M133.42,84c.37-.24.69-.55,1-.82l-.14-.16-5.45,1.42v-.67l-.29-.15L127,85.89l-.15-.08c.19-.6.37-1.2.59-1.89-1.71.21-1.76,1.92-2.83,2.64l1-2.52c-2,.3-1.78,2.31-3.1,3,.39-.81.79-1.61,1.21-2.47-2.22-.2-1.92,2.3-3.4,3,.44-1.15.83-2.19,1.26-3.35-2,.28-2.18,2-3.19,3,.25-.83.49-1.66.74-2.52-2.21-.35-1.86,2.12-3.26,2.87.28-1,.51-1.76.77-2.64-2.12-.15-1.86,2-2.81,2.78l.4-4.1c-2,1-2,2.46-1.94,4.06a3.67,3.67,0,0,1-.78-.36c.54-2.3,1.13-4.6,1.75-7.07,1.79,3,1.79,3,3.09,2.88l-.76-2.24c1.21,1,1.68,2.65,3.67,3.08-.54-1.11-1-2-1.37-2.81a7.76,7.76,0,0,1,1.43,1.2,12,12,0,0,0,1.59.93l.22-.29-1-1.84c1.34.44,1.61,2.4,3.46,1.91l-1.52-2L125,82.76l.3-.37-1.08-1.81,2.72,1.16.19-.36-.92-1,1.95.8.19-.6-.45-.46,4.39-1.25c-1.78-.21-3.57-1.1-5.23.2l0-.71a8.62,8.62,0,0,1-2.91.29c-1.54-.38-1.62,1.2-2.68,1.69.3-.78.55-1.4.71-1.83-2-.91-3.36,0-4.37,1.81l-.19-.36,1.22-1.65c-1.78-.41-2.37,1-3.53,2l1.33-2.88c-2.05-.42-2,1.58-3.19,2.53a12.56,12.56,0,0,1,1.62-5.41c1,1,1.5,2.24,3.22,2.5L117,75c1.26.49,1.62,2.24,3.38,2.14l-1-2c1.4.62,1.64,2.52,3.44,2.22l-1.11-1.85L124.31,77l.2-.36c-.3-.55-.6-1.1-1-1.78l2.75,1.21.15-.34-.64-.8,1.76.59.14-.48-.4-.46,4.43-1.09c-1.77-.23-3.54-1.32-5.28,0l.13-.78c-1,.1-2.09.5-2.93.22-1.57-.53-1.67,1.16-2.78,1.52l.74-1.61A4.22,4.22,0,0,0,117,74.1l1.32-1.67L118,72c-.69.38-1.45,1.15-2,1-1.05-.18-1,.94-1.67,1.06-.06-2.6-.06-2.6-.93-3.14L113,72c-.29-.63-.6-1.27-.9-1.91l-.36.15c0,.25,0,.51,0,.76s0,.46,0,.69l-.21-.08c-.15-1-.29-1.95-.44-2.93l-.44,0-.41,2.13c-.18-2.4-.18-2.4-2.11-4L107.84,68c-.21-.88-.14-2.05-.61-2.32a13.18,13.18,0,0,1-3.59-3,2.14,2.14,0,0,0-.49-.34A19.75,19.75,0,0,0,105.08,66c1,1.44,1,1.42,1.79,1.74,0,0,0,.16,0,.29l-1.4.13-.08.35,2.45.81-1.54.24-.15.88,2.78,0-.06.29-1.49.14-.07.43,3.32.73,0,.23-2,.39c1,1.61,2.57.31,3.84.91l-1.86,1.12.08.44,3.69-.41-1.68,4.83-.49-.14a9.32,9.32,0,0,0,.33-1.86,8.73,8.73,0,0,0-.41-1.86l-.42.06c-.25.58-.5,1.17-.74,1.75.13-2.19-2.12-2.45-3-3.82-.08.75-.16,1.49-.23,2.24l-.1,0-.42-3.2-.48,0-.52,1.63-.5-2.62-.38.06-.45,1.06c0-1.93-3.69-5.77-5.92-6.53a17.69,17.69,0,0,0,1.26,2.06c.84,1,.48,3,2.48,3.23l-1.48.06-.09.37,2.68,1-1.9.58,0,.46,3.42.61,0,.17-2.45.53c1,1.55,2.48.35,3.75.86l-2,.84c1.27,1.32,2.72.08,4.24.53l-3.21,1.57c1.76,1,3.22-.33,4.78.05l-2.34,1.41c1.65,1.46,2.79-.46,4-.38-.58,2.32-1.16,4.68-1.75,7.06l-.64-.32c1.54-2.33,1.56-3.24,0-4.21l-1.53,3.81h.06l-2.44,3.07a8.49,8.49,0,0,1,1.75.12,4.29,4.29,0,0,0,2.27-2.32c.31.89.52,1.48.7,2l1.24-1.45a4.66,4.66,0,0,0,2.44,3.84l.48-.18-.9-3.52.28-.22a15.45,15.45,0,0,1,1.38,1.89,1.7,1.7,0,0,0,2.08,1.1c-.41-1-.77-1.9-1.14-2.81l.29-.21c.61.67,1.2,1.36,1.85,2s1.21,1.54,2.55,1.27L119.2,88l.19-.17,3.47,2.61.38-.39-1.18-2a13.71,13.71,0,0,1,1.75,1.3,7.6,7.6,0,0,0,1.73.64l.14-.34-1.8-2.12.22-.23,3.41,1.54.22-.43-1.88-1.62,3.51.78.08-.38-.66-.59,1.58-.21-.29-.36C131.16,85.4,132.3,84.73,133.42,84Z"/><path d="M106.65,82.23,106.13,85c-1-1.43.76-3.5-1.58-4.48L104,83.56l-.43,0c-.25-1.53.84-3.43-1.06-4.65-.18,1-.34,1.81-.49,2.66-.73-1.24.45-3-1.52-3.74-.1,1-.19,1.9-.28,2.84-.5-1.29.35-2.79-1.14-3.91-.13,1-.24,1.77-.35,2.59-.73-1.22.63-2.75-.81-3.91-.18.47-.35.88-.61,1.54-.11-1-.2-1.65-.28-2.35l-.34,0-.49,1.27A5.71,5.71,0,0,0,95.48,74a15,15,0,0,0-2-1.37A16.88,16.88,0,0,1,92,71.13l-.2.17,2.66,4.41-.6.41,2.58,1.17-2,.09-.14.4,3.13,1.08,0,.21-2.17.18c1,1.51,2.72.55,4.06,1.41l-2.94,1.11,0,.44a14.49,14.49,0,0,0,2.08.1,17.79,17.79,0,0,0,2.14-.47l0,.27-2.3,1.38c1.64,1.25,3.24-.73,5,.18l-3.7,2.23c2.29.88,3.93-.94,6.16-.81l-3.42,2.53c.89.2,1.45.51,1.86.38.8-.27,1.47-.87,2.26-1.18a6.31,6.31,0,0,1,1.76-.18,11.64,11.64,0,0,1-.19-1.71C108.06,83.88,108.28,82.78,106.65,82.23Z"/><path d="M123.23,56.7l4.32-.28c-1.34,2.27-3.66,1.36-5.49,1.8l.1.46,4.91.13c-1.28,2-3.67,2.13-5.88,1.36l-.67,1.43c.56.37,1.13-1.12,1.54.21l4.87-.66c-1.79,2-3.82,2.7-5.94,2.19-1.27-.3-1.59.15-2,1-2-1.89-3.33-4-2.22-7,1.23,1.52,1,3.82,3,4.67.55-.66.51-.63-.16-1.47a4.36,4.36,0,0,1-.64-5.22l2.14,4.1h.23a6.23,6.23,0,0,0-.38-1.36c-.68-1.24-1.49-2.43-.76-4.11l2.14,3,.33-.12c-.31-1.58-2.2-2.84-1-4.85l1.79,3,.35,0-.8-4.09.49-.13L125,53.26l-.21-3.55.45-.07.78,1.79.18-2.84.3-.05.59.89.29-2.1.75,1.09.32-1.47c1.76-.21,2-2.12,3.7-2.67-.79,1.45-1.47,2.64-2.1,3.85-.14.27,0,.74-.22.9a5.18,5.18,0,0,1-1.31.61l1.16.26.09.28-2.63.85,1.76.38.08.35-2.64.64v.2h2.13c-.81,1.65-2.51.88-3.64,1.65l2.93.17c-.84,1.41-1.38,1.57-3.91,1.2Z"/><path d="M128.25,66.47l-3.09,2.06c.19.91-2.32,2.08-4.18,1.6.1.87,0,.91-1.63.49-.44,1.1-.8.8-2.54-.45l-.92,1.55,0-1.19c-1.55-.12-1.55-.12-3.59-2.3l.56-.19c-2.79-1.67-2.5-4.79-3.38-7.38,1.79,2,3.86,3.86,4.66,6.55.91-1.18.76.23,1.14.6l.82-.89.2,2.83,1.27-2.88c-2.8-.67-2.93-3.06-3.6-5.05a25.33,25.33,0,0,1-.63-2.9l.37-.24c.83,1.2,2,2.3,2.38,3.63s2.22,1.53,1.87,3.28L120.65,64l.27.15-.49.88,6.42-.36c-1.77,2.33-4.84,2.88-8.49,1.6l-1.24,2.89L119,67.32l0,1.3,1.41-.73-.09,1c1.21-1.18,2.39-1.61,2.93-1.05C124.56,66.39,126.41,66.52,128.25,66.47Z"/></g><path id="Little_plant_stem" data-name="Little plant stem" d="M111.4,88.4a.56.56,0,0,0,0,.12,40,40,0,0,0-1.58,11c0,.76-.07.83-.88.91,0-.2,0-.41,0-.62a42,42,0,0,1,1.91-12.59A4.36,4.36,0,0,0,111.4,88.4Z"/><path id="leaf" d="M86.72,144.26l-.25.06-.68-1.67s-.87-3.64-1.06-4a11.52,11.52,0,0,0-3.19-4.29c-1.93-1.35-5.26-2.67-10.14-3.84.75.59,2.77,1.91,3.58,3.71.43.73,2,3.49,2.11,3.67s1.83,3.59,2.31,3.85a5.08,5.08,0,0,0,3,1.61,7.39,7.39,0,0,1,1.62.13,4.29,4.29,0,0,1,1.69.95,3.62,3.62,0,0,1,1.2,1.89C87,147.18,86.72,144.26,86.72,144.26Z"/><path id="leaf-2" data-name="leaf" d="M86.93,111.75h.33l.34-2.32s0-4.87.08-5.33.67-4.12,2.68-6.43,5.8-5,11.57-8c-.75,1-2.89,3.27-3.34,5.8-.32,1-1.44,5-1.51,5.29s-1.18,5.1-1.71,5.58a6.56,6.56,0,0,1-3.24,3,9.66,9.66,0,0,0-2,.68,5.65,5.65,0,0,0-1.83,1.73,4.69,4.69,0,0,0-.92,2.76C87.47,115.53,86.93,111.75,86.93,111.75Z"/><path id="leaf-3" data-name="leaf" d="M149.2,104.63l-.48-.09.11-3.37s1.29-6.91,1.21-7.61.08-6-2.19-9.79-7-8.58-14.43-14.3c.83,1.58,3.28,5.38,3.3,9.08.18,1.58.77,7.51.81,7.9s.4,7.54,1,8.35a9.49,9.49,0,0,0,3.86,5,13.69,13.69,0,0,1,2.68,1.47,8,8,0,0,1,2.17,2.91,6.89,6.89,0,0,1,.62,4.16C147.49,109.86,149.2,104.63,149.2,104.63Z"/><path id="leaf-4" data-name="leaf" d="M132.82,170.16l-.47.06-.88-3.2s-.77-6.88-1-7.51-1.66-5.68-4.89-8.58-9-6.07-17.69-9.31c1.23,1.25,4.64,4.11,5.72,7.59.62,1.43,2.89,6.84,3,7.2s2.55,7,3.37,7.57a9.42,9.42,0,0,0,5.09,3.62,13.38,13.38,0,0,1,2.94.61,7.79,7.79,0,0,1,2.88,2.11,6.73,6.73,0,0,1,1.78,3.74C132.71,175.58,132.82,170.16,132.82,170.16Z"/><path id="leaf-5" data-name="leaf" d="M158.16,93l.37.41,3.23-2.16s6-5.47,6.68-5.82,5.81-3.73,10.88-3.82S192,83.16,202.06,87c-2,.15-7.24.06-10.86,2.3-1.65.79-7.8,3.82-8.2,4s-7.6,4.2-8.77,4.09a11,11,0,0,1-7.27-.71,15.54,15.54,0,0,0-3.06-1.72,9.25,9.25,0,0,0-4.16-.34c-1.49.32-3.23.63-4.43,1.93S158.16,93,158.16,93Z"/></g></g></svg>